<svg id="Layer_1" data-name="Layer 1" xmlns="http://www.w3.org/2000/svg" xmlns:xlink="http://www.w3.org/1999/xlink" viewBox="0 0 299.75 299.75"><defs><style>.cls-1{fill:url(#linear-gradient);}.cls-2{fill:url(#linear-gradient-2);}.cls-3{fill:url(#linear-gradient-3);}.cls-4{fill:url(#linear-gradient-4);}.cls-5{fill:url(#linear-gradient-5);}.cls-6{fill:url(#linear-gradient-6);}.cls-7{fill:url(#linear-gradient-7);}.cls-8{fill:url(#linear-gradient-8);}.cls-9{fill:#396a28;}</style><linearGradient id="linear-gradient" x1="55.53" y1="149.88" x2="55.53" y2="207.62" gradientUnits="userSpaceOnUse"><stop offset="0" stop-color="#346323"/><stop offset="1" stop-color="#9bcc60"/></linearGradient><linearGradient id="linear-gradient-2" x1="55.53" y1="92.13" x2="55.53" y2="149.88" gradientUnits="userSpaceOnUse"><stop offset="0" stop-color="#c0db70"/><stop offset="0.04" stop-color="#bad96d"/><stop offset="0.32" stop-color="#95cb57"/><stop offset="0.59" stop-color="#79c048"/><stop offset="0.82" stop-color="#69ba3e"/><stop offset="1" stop-color="#63b83b"/></linearGradient><linearGradient id="linear-gradient-3" x1="92.13" y1="244.22" x2="149.88" y2="244.22" gradientUnits="userSpaceOnUse"><stop offset="0" stop-color="#c9e074"/><stop offset="0.13" stop-color="#b5d869"/><stop offset="0.37" stop-color="#92cb56"/><stop offset="0.61" stop-color="#79c248"/><stop offset="0.82" stop-color="#6abc40"/><stop offset="1" stop-color="#65ba3d"/></linearGradient><linearGradient id="linear-gradient-4" x1="149.88" y1="244.22" x2="207.63" y2="244.22" gradientUnits="userSpaceOnUse"><stop offset="0" stop-color="#336123"/><stop offset="1" stop-color="#9acc5c"/></linearGradient><linearGradient id="linear-gradient-5" x1="244.22" y1="207.63" x2="244.22" y2="149.87" gradientUnits="userSpaceOnUse"><stop offset="0" stop-color="#c5e06c"/><stop offset="0.02" stop-color="#c2df6b"/><stop offset="0.32" stop-color="#9bcf57"/><stop offset="0.59" stop-color="#7ec349"/><stop offset="0.83" stop-color="#6dbc40"/><stop offset="1" stop-color="#67ba3d"/></linearGradient><linearGradient id="linear-gradient-6" x1="244.22" y1="92.13" x2="244.22" y2="149.88" gradientUnits="userSpaceOnUse"><stop offset="0" stop-color="#9bcf5a"/><stop offset="0.56" stop-color="#5d8f39"/><stop offset="1" stop-color="#316121"/></linearGradient><linearGradient id="linear-gradient-7" x1="149.88" y1="55.53" x2="207.63" y2="55.53" gradientUnits="userSpaceOnUse"><stop offset="0" stop-color="#305c20"/><stop offset="1" stop-color="#99cc5e"/></linearGradient><linearGradient id="linear-gradient-8" x1="92.13" y1="55.53" x2="149.88" y2="55.53" gradientUnits="userSpaceOnUse"><stop offset="0" stop-color="#c5e06b"/><stop offset="0.28" stop-color="#a0d05a"/><stop offset="0.58" stop-color="#7dc14a"/><stop offset="0.84" stop-color="#67b840"/><stop offset="1" stop-color="#5fb53c"/></linearGradient></defs><title>ELLA_logo_301</title><g id="LeftLeaf"><polygon id="LeftBottom" class="cls-1" points="0 149.88 81.81 207.63 111.06 178.06 82.75 149.88 0 149.88"/><polygon id="LeftTop" class="cls-2" points="0 149.88 81.81 92.13 111.06 121.69 82.75 149.88 0 149.88"/></g><g id="BottomLeaf"><polygon id="BottomLeft" class="cls-3" points="149.88 299.75 92.13 217.94 121.69 188.69 149.88 217 149.88 299.75"/><polygon id="BottomRight" class="cls-4" points="149.88 299.75 207.63 217.94 178.06 188.69 149.88 217 149.88 299.75"/></g><g id="RightLeaf"><polygon id="RightBottomLeaf" class="cls-5" points="299.75 149.88 217.94 207.63 188.69 178.06 217 149.88 299.75 149.88"/><polygon id="RightTopLeaf" class="cls-6" points="299.75 149.88 217.94 92.13 188.69 121.69 217 149.88 299.75 149.88"/></g><g id="TopLeaf"><polygon id="TopRight" class="cls-7" points="149.88 0 207.63 81.81 178.06 111.06 149.88 82.75 149.88 0"/><polygon id="TopLeft" class="cls-8" points="149.88 0 92.13 81.81 121.69 111.06 149.88 82.75 149.88 0"/></g><rect id="Center" class="cls-9" x="167.13" y="166.13" width="66.75" height="66.75" transform="translate(-132.97 150.58) rotate(-45)"/></svg>